<?xml version="1.0" encoding="utf-8"?>
<!-- Uploaded to: SVG Repo, www.svgrepo.com, Generator: SVG Repo Mixer Tools -->
<svg fill="#000000" width="800px" height="800px" viewBox="-7.5 0 32 32" version="1.1" xmlns="http://www.w3.org/2000/svg">
<title>nine</title>
<path d="M3.844 25.219l5.813-9.125c-0.406 0.063-0.844 0.125-1.281 0.125-3.938 0-7.094-3.188-7.094-7.094 0-3.938 3.156-7.125 7.094-7.125 3.281 0 6.063 2.281 6.875 5.344 0.125 0.531 0.25 1.188 0.25 1.781 0 1.344-0.406 2.563-1.031 3.625l-0.219 0.344-8.531 13.344zM12.156 12.188l0.594-0.906c0.344-0.688 0.5-1.375 0.5-2.156 0-2.688-2.188-4.906-4.875-4.906s-4.875 2.219-4.875 4.906 2.188 4.844 4.875 4.844c1.531 0 2.875-0.688 3.781-1.781z"></path>
</svg>