<?xml version="1.0" encoding="utf-8"?>
<!-- Uploaded to: SVG Repo, www.svgrepo.com, Generator: SVG Repo Mixer Tools -->
<svg fill="#000000" width="800px" height="800px" viewBox="-7.5 0 32 32" version="1.1" xmlns="http://www.w3.org/2000/svg">
<title>six</title>
<path d="M13.25 2.938l-5.844 9.125c0.438-0.063 0.875-0.125 1.313-0.125 3.906 0 7.094 3.188 7.094 7.094 0 3.938-3.188 7.094-7.094 7.094-3.313 0-6.125-2.281-6.906-5.344-0.156-0.531-0.219-1.156-0.219-1.75 0-1.344 0.406-2.594 1.031-3.656l0.188-0.313 8.5-13.344zM4.906 15.969l-0.594 0.875c-0.313 0.688-0.5 1.406-0.5 2.188 0 2.688 2.219 4.906 4.906 4.906s4.844-2.219 4.844-4.906-2.156-4.875-4.844-4.875c-1.531 0-2.906 0.719-3.813 1.813z"></path>
</svg>